<?xml version="1.0" encoding="UTF-8"?>
<svg id="_图层_1" data-name="图层_1" xmlns="http://www.w3.org/2000/svg" version="1.1" viewBox="0 0 1671.98 1671.97">
<!-- Generator: Adobe Illustrator 29.5.1, SVG Export Plug-In . SVG Version: 2.1.0 Build 141) -->
<defs>
<style>
.st0 {
fill: #1e95d4;
}

.st1, .st2 {
fill: #fff;
}

.st2 {
fill-rule: evenodd;
}
</style>
</defs>
<path class="st0" d="M1655.57,835.96c0,452.64-366.94,819.59-819.58,819.59S16.41,1288.6,16.41,835.96,383.37,16.41,835.98,16.41s819.58,366.92,819.58,819.55Z"/>
<g>
<polygon class="st1" points="204.35 676.81 167.8 676.81 115.89 997.94 242.77 997.94 248.17 964.67 157.79 964.67 204.35 676.81"/>
<path class="st2" d="M416.81,904.63h-83.13l57.6-96.48,25.53,96.48ZM423.52,929.53l17.96,68.41h30.35l-69.82-252.38-154.13,252.38h29.96l40.69-68.41h104.99Z"/>
<polygon class="st1" points="480.57 997.94 508.57 997.94 566.53 834.89 567.18 834.89 618.17 1007.77 725.29 834.89 725.93 834.89 731.29 997.94 759.21 997.94 750.53 743.26 628.21 945.55 571.59 743.26 480.57 997.94"/>
<polygon class="st1" points="857.54 757.06 830.12 757.06 791.21 997.94 818.62 997.94 857.54 757.06"/>
<path class="st1" d="M925.86,997.38h-29.27l43.47-261.22s40-43.8,97.22-41.73c54.1,1.99,90.5,35.96,90.5,95.81,0,63.93-47.72,120.17-110.83,122.65-52.28,2.06-73.93-23.45-73.93-23.45l-17.15,107.95ZM966.28,748.66l-17.68,111.25s24.29,29.11,58.85,29.11,90.81-17.39,98.13-89.08c6.48-62.83-49.1-79.72-61.35-79.72,0,0-40.21-2.89-77.95,28.44"/>
<path class="st1" d="M1237.44,748.84l-155.44,247.21h29.6l41.4-66.45h107.07l19.59,68.41h29.2l-71.41-249.17ZM1167.96,904.33l60.32-94.08,25.09,94.05-85.41.03Z"/>
<polygon class="st1" points="1338.41 997 1368.79 996.56 1386.47 880.99 1484.72 995.78 1520.43 995.78 1419.05 875.14 1556.09 755.81 1518.86 755.81 1388.77 866.71 1407.16 751.29 1380.25 751.29 1338.41 997"/>
</g>
</svg>